<svg xmlns="http://www.w3.org/2000/svg" width="437.289" height="96" viewBox="0 0 437.289 96">
    <g data-name="그룹 9812">
        <path data-name="패스 2569" d="M214.625 72.369a5.281 5.281 0 0 1-1.137 7.3 5.222 5.222 0 0 1-6.916-1.325l-14.88-22.358H184.3v19.321a5.174 5.174 0 0 1-5.213 5.117 5.04 5.04 0 0 1-4.829-5.117V20.173a5.122 5.122 0 0 1 4.729-5.486 5.261 5.261 0 0 1 .574-.01h20.083c14.021 0 19.9 10.325 19.9 20.746a18.581 18.581 0 0 1-16.854 20.16h-.007zm-30.312-48.408V46.79H198.9a10.222 10.222 0 0 0 10.253-11.366 10.224 10.224 0 0 0-8.905-11.391q-.473-.058-.949-.072z" transform="translate(-70.155 -5.908)" style="fill:#1db954"/>
        <path data-name="패스 2570" d="M295.543 87.134a17.759 17.759 0 0 1-14.88 7.3 23.074 23.074 0 0 1 0-46.133 17.55 17.55 0 0 1 14.88 7.2v-1.828a4.853 4.853 0 0 1 4.738-4.925 4.973 4.973 0 0 1 5.021 4.924v35.334a4.973 4.973 0 0 1-5.02 4.925 4.854 4.854 0 0 1-4.738-4.925zm-13.737-2.179a13.594 13.594 0 1 0-13.546-13.738 13.354 13.354 0 0 0 12.962 13.733c.194.006.389.007.583 0" transform="translate(-103.942 -19.439)" style="fill:#1db954"/>
        <path data-name="패스 2571" d="M362.532 112.489a5.116 5.116 0 0 1-6.062 3.125 4.724 4.724 0 0 1-3.12-5.907c.026-.084.055-.168.086-.252l7.2-17.717-15.063-36.282a4.656 4.656 0 0 1 2.65-6.028q.189-.073.384-.13a5.117 5.117 0 0 1 6.063 3.125l11.179 27.47 11.276-27.47a5.116 5.116 0 0 1 6.062-3.125 4.655 4.655 0 0 1 3.158 5.777 4.618 4.618 0 0 1-.13.381z" transform="translate(-139.006 -19.782)" style="fill:#1db954"/>
        <path data-name="패스 2572" d="M456.246 49.532a5.644 5.644 0 0 1 5.683 4.262l8.9 25.579 9.379-27a4.915 4.915 0 0 1 5.875-3.221 4.589 4.589 0 0 1 3.381 5.54 4.438 4.438 0 0 1-.16.523l-13.162 34.954a5.4 5.4 0 0 1-5.117 4.075h-.379a5.227 5.227 0 0 1-5.021-4.075l-9.59-27.279-9.567 27.284a5.221 5.221 0 0 1-5.02 4.075h-.379a5.4 5.4 0 0 1-5.117-4.075L422.785 55.22a4.589 4.589 0 0 1 2.7-5.9 4.684 4.684 0 0 1 .523-.16 4.911 4.911 0 0 1 5.875 3.221l9.379 27 8.9-25.579a5.641 5.641 0 0 1 5.684-4.262z" transform="translate(-170.104 -19.729)" style="fill:#fff"/>
        <path data-name="패스 2573" d="M580.273 87.134a17.759 17.759 0 0 1-14.88 7.3 23.074 23.074 0 0 1 0-46.133 17.55 17.55 0 0 1 14.88 7.2v-1.828a4.853 4.853 0 0 1 4.738-4.925 4.972 4.972 0 0 1 5.02 4.924v35.334a4.973 4.973 0 0 1-5.02 4.925 4.853 4.853 0 0 1-4.738-4.925zm-13.737-2.179a13.594 13.594 0 1 0-13.546-13.738 13.354 13.354 0 0 0 12.963 13.733c.194.006.389.007.583 0" transform="translate(-218.579 -19.439)" style="fill:#fff"/>
        <path data-name="패스 2574" d="M638.388 46.324h-4.359a4.008 4.008 0 0 1-4.075-3.883 4.123 4.123 0 0 1 4.075-4.167h4.359V25.953a4.853 4.853 0 0 1 4.738-4.925 4.973 4.973 0 0 1 5.021 4.924V38.27h5.76a4.123 4.123 0 0 1 4.075 4.167 4.008 4.008 0 0 1-4.075 3.883h-5.76v31.737a4.973 4.973 0 0 1-5.02 4.925 4.853 4.853 0 0 1-4.738-4.925z" transform="translate(-253.63 -8.466)" style="fill:#fff"/>
        <path data-name="패스 2575" d="M693.5 46.324h-4.358a4.008 4.008 0 0 1-4.075-3.883 4.123 4.123 0 0 1 4.075-4.167h4.358V25.953a4.853 4.853 0 0 1 4.738-4.925 4.972 4.972 0 0 1 5.02 4.924V38.27h5.761a4.123 4.123 0 0 1 4.075 4.167 4.008 4.008 0 0 1-4.075 3.883h-5.761v31.737a4.972 4.972 0 0 1-5.02 4.925 4.853 4.853 0 0 1-4.738-4.925z" transform="translate(-275.82 -8.466)" style="fill:#fff"/>
        <path data-name="패스 2576" d="M6.472 57.845A4.575 4.575 0 0 1 2.128 54.7a41.63 41.63 0 0 1 68.967-42.47 4.575 4.575 0 0 1-6.47 6.47A32.487 32.487 0 0 0 9.256 44.016L26.632 26.64a4.575 4.575 0 1 1 6.47 6.47L9.707 56.506a4.574 4.574 0 0 1-3.235 1.339" transform="translate(-.011 -.02)" style="fill:#1db954"/>
        <path data-name="패스 2577" d="M49.055 100.469A41.855 41.855 0 0 1 19.53 88.277a4.575 4.575 0 0 1 6.47-6.47 32.486 32.486 0 0 0 55.368-25.32L63.993 73.863a4.575 4.575 0 0 1-6.47-6.47L80.918 44a4.574 4.574 0 0 1 7.582 1.8 41.65 41.65 0 0 1-39.45 54.683" transform="translate(-7.324 -17.175)" style="fill:#fff"/>
        <path data-name="사각형 1598" style="fill:none" d="M0 0h437.289v96H0z"/>
    </g>
</svg>
